P3
10 10
255
0 112 0
112 112 112
112 112 112
112 112 112
112 112 112
112 112 112
112 112 112
112 112 112
112 112 112
112 112 112
112 112 112
0 112 0
112 112 112
112 112 112
112 112 112
112 112 112
112 112 112
112 112 112
112 112 112
112 112 112
112 112 112
112 112 112
0 112 0
112 112 112
112 112 112
112 112 112
112 112 112
112 112 112
112 112 112
112 112 112
112 112 112
112 112 112
112 112 112
0 112 0
112 112 112
112 112 112
112 112 112
112 112 112
112 112 112
112 112 112
112 112 112
112 112 112
112 112 112
112 112 112
0 112 0
112 112 112
112 112 112
112 112 112
112 112 112
112 112 112
112 112 112
112 112 112
112 112 112
112 112 112
112 112 112
0 112 0
112 112 112
112 112 112
112 112 112
112 112 112
112 112 112
112 112 112
112 112 112
112 112 112
112 112 112
112 112 112
0 112 0
112 112 112
112 112 112
112 112 112
112 112 112
112 112 112
112 112 112
112 112 112
112 112 112
112 112 112
112 112 112
0 112 0
112 112 112
112 112 112
112 112 112
112 112 112
112 112 112
112 112 112
112 112 112
112 112 112
112 112 112
112 112 112
0 112 0
112 112 112
112 112 112
112 112 112
112 112 112
112 112 112
112 112 112
112 112 112
112 112 112
112 112 112
112 112 112
0 112 0
