P3
10 10
255
128 255 128
128 0 128
128 0 128
128 0 128
128 0 128
128 0 128
128 0 128
128 0 128
128 0 128
128 0 128
128 0 128
128 255 128
128 0 128
128 0 128
128 0 128
128 0 128
128 0 128
128 0 128
128 0 128
128 0 128
128 0 128
128 0 128
128 255 128
128 0 128
128 0 128
128 0 128
128 0 128
128 0 128
128 0 128
128 0 128
128 0 128
128 0 128
128 0 128
128 255 128
128 0 128
128 0 128
128 0 128
128 0 128
128 0 128
128 0 128
128 0 128
128 0 128
128 0 128
128 0 128
128 255 128
128 0 128
128 0 128
128 0 128
128 0 128
128 0 128
128 0 128
128 0 128
128 0 128
128 0 128
128 0 128
128 255 128
128 0 128
128 0 128
128 0 128
128 0 128
128 0 128
128 0 128
128 0 128
128 0 128
128 0 128
128 0 128
128 255 128
128 0 128
128 0 128
128 0 128
128 0 128
128 0 128
128 0 128
128 0 128
128 0 128
128 0 128
128 0 128
128 255 128
128 0 128
128 0 128
128 0 128
128 0 128
128 0 128
128 0 128
128 0 128
128 0 128
128 0 128
128 0 128
128 255 128
128 0 128
128 0 128
128 0 128
128 0 128
128 0 128
128 0 128
128 0 128
128 0 128
128 0 128
128 0 128
128 255 128
